<svg width="43" height="41" viewBox="0 0 43 41" fill="none" xmlns="http://www.w3.org/2000/svg">
<g clip-path="url(#clip0)">
<path d="M3.88701 40.9999H38.8701C39.2994 40.9999 39.6475 40.6438 39.6475 40.2047V19.5308H38.0927V39.4096H3.88701C2.59906 39.4096 1.77402 38.3223 1.5548 37.0241C1.09322 34.2907 2.55085 33.1477 3.88701 33.1477H5.44181C5.87112 33.1477 6.21921 32.7917 6.21921 32.3526V11.4799H22.3017V9.88957H6.21921V2.08714C6.21921 1.64802 5.87112 1.29199 5.44181 1.29199H3.88701C1.74118 1.29471 0.00265714 4.56384 0 6.75866V37.0241C0.00265714 39.2189 1.74118 40.9972 3.88701 40.9999ZM1.5548 9.19381V6.75866C1.5548 5.4413 2.59906 2.8823 3.88701 2.8823H4.66441V31.5574H3.88701C2.55085 31.5574 0.728814 32.7998 1.5548 33.8435V9.19381Z" fill="#FF5F1A"/>
<path d="M17.8801 14.6111H8.55133C8.12201 14.6111 7.77393 14.9671 7.77393 15.4062V21.7674C7.77393 22.2066 8.12201 22.5626 8.55133 22.5626H17.8801C18.3095 22.5626 18.6575 22.2066 18.6575 21.7674V19.382H21.7671V17.7917H18.6575V15.4062C18.6575 14.9671 18.3095 14.6111 17.8801 14.6111ZM17.1027 20.9723H9.32873V16.2014H17.1027V20.9723Z" fill="#FF5F1A"/>
<path d="M25.6544 34.6389H34.9832C35.4125 34.6389 35.7606 34.2829 35.7606 33.8438V27.4826C35.7606 27.0434 35.4125 26.6874 34.9832 26.6874H31.0962V21.9165H29.5414V26.6874H25.6544C25.2251 26.6874 24.877 27.0434 24.877 27.4826V29.868H18.6578V27.4826C18.6578 27.0434 18.3097 26.6874 17.8804 26.6874H8.55157C8.12225 26.6874 7.77417 27.0434 7.77417 27.4826V33.8438C7.77417 34.2829 8.12225 34.6389 8.55157 34.6389H17.8804C18.3097 34.6389 18.6578 34.2829 18.6578 33.8438V31.4583H24.877V33.8438C24.877 34.2829 25.2251 34.6389 25.6544 34.6389ZM26.4318 28.2777H34.2058V33.0486H26.4318V28.2777ZM17.103 33.0486H9.32897V28.2777H17.103V33.0486Z" fill="#FF5F1A"/>
<path d="M33.5257 4.32266H33.5255C30.6218 4.32266 28.2738 6.7292 28.2738 9.69084C28.2738 12.6525 30.6218 15.059 33.5255 15.059C36.4292 15.059 38.7772 12.6525 38.7772 9.69084V9.69068C38.7741 6.73058 36.4279 4.32587 33.5257 4.32266ZM33.5253 13.5994C31.4199 13.5993 29.7075 11.8528 29.7075 9.69084C29.7075 7.52885 31.42 5.78225 33.5255 5.78225C35.631 5.78225 37.3434 7.52876 37.3435 9.69067C37.3411 11.8517 35.6299 13.597 33.5253 13.5994Z" fill="#FF5F1A" stroke="#FF5F1A" stroke-width="0.3"/>
<mask id="path-5-outside-1" maskUnits="userSpaceOnUse" x="23.0508" y="-1" width="21" height="21" fill="black">
<rect fill="white" x="23.0508" y="-1" width="21" height="21"/>
<path d="M42.4426 11.9711C42.7504 11.9711 42.9999 11.7159 42.9999 11.4011V7.98075C42.9999 7.66594 42.7504 7.4107 42.4426 7.4107H40.4122C40.2933 7.0366 40.1458 6.67252 39.9714 6.3218L41.4093 4.85631C41.5141 4.74943 41.5731 4.60413 41.5731 4.45271C41.5731 4.30129 41.5141 4.15599 41.4093 4.04911L39.0428 1.62638C38.9384 1.51949 38.7966 1.45937 38.6488 1.45937C38.501 1.45965 38.3593 1.51977 38.2548 1.62694L36.8193 3.09772C36.4764 2.9193 36.1204 2.76871 35.7547 2.6468V0.570054C35.7547 0.255244 35.5051 0 35.1973 0H31.8534C31.5456 0 31.296 0.255244 31.296 0.570054V2.6468C30.9303 2.76871 30.5743 2.9193 30.2315 3.09772L28.7981 1.62694C28.6936 1.51977 28.5519 1.45965 28.4041 1.45937C28.2563 1.45937 28.1145 1.51949 28.01 1.62638L25.6409 4.04744C25.5361 4.15432 25.477 4.29962 25.477 4.45104C25.477 4.60246 25.5361 4.74776 25.6409 4.85464L27.0788 6.32013C26.9044 6.67141 26.7571 7.03604 26.6385 7.4107H24.6081C24.3003 7.4107 24.0508 7.66594 24.0508 7.98075V11.4011C24.0508 11.7159 24.3003 11.9711 24.6081 11.9711H26.6385C26.7574 12.3452 26.9049 12.7093 27.0793 13.06L25.6414 14.5255C25.5364 14.6324 25.4773 14.778 25.4773 14.9294C25.4773 15.0811 25.5364 15.2264 25.6414 15.3333L28.0079 17.7499C28.2256 17.9723 28.5783 17.9723 28.796 17.7499L30.2293 16.2841C30.573 16.4625 30.9298 16.6131 31.296 16.735V18.8118C31.296 19.1266 31.5456 19.3818 31.8534 19.3818H35.1973C35.5051 19.3818 35.7547 19.1266 35.7547 18.8118V16.735C36.1207 16.6131 36.4766 16.4625 36.8198 16.2841L38.2531 17.7499C38.4708 17.972 38.823 17.972 39.0407 17.7499L41.4093 15.3327C41.5144 15.2258 41.5734 15.0805 41.5734 14.9288C41.5734 14.7771 41.5144 14.6318 41.4093 14.525L39.9714 13.0595C40.1458 12.709 40.2933 12.3449 40.4122 11.9711H42.4426ZM39.4576 11.2558C39.3109 11.8233 39.0902 12.368 38.8009 12.8752C38.6733 13.0993 38.7095 13.3832 38.8891 13.566L40.2266 14.9297L38.6477 16.5413L37.3151 15.1766C37.1363 14.9934 36.859 14.9567 36.6402 15.0869C36.1446 15.3828 35.6118 15.6086 35.0569 15.758C34.8115 15.8234 34.6403 16.05 34.64 16.3092V18.2417H32.4107V16.3092C32.4107 16.0503 32.2401 15.824 31.9954 15.758C31.4405 15.6086 30.9077 15.3828 30.4122 15.0869C30.1934 14.9567 29.9161 14.9934 29.7373 15.1766L28.4035 16.5407L26.8246 14.9297L28.1622 13.566C28.3418 13.3832 28.378 13.0993 28.2503 12.8752C27.9611 12.368 27.7404 11.8233 27.5937 11.2558C27.5292 11.0055 27.3079 10.831 27.0549 10.831H25.1654V8.5508H27.0549C27.3077 8.55052 27.5286 8.37628 27.5931 8.12605C27.7398 7.5585 27.9605 7.01377 28.2498 6.50663C28.3774 6.28256 28.3412 5.99864 28.1616 5.81577L26.8241 4.45159L28.4035 2.83607L29.7373 4.20414C29.9161 4.38785 30.1936 4.42487 30.4127 4.29433C30.9083 3.99845 31.4411 3.77271 31.996 3.62324C32.2403 3.55699 32.4104 3.33097 32.4107 3.07267V1.14011H34.64V3.07267C34.64 3.33153 34.8106 3.55782 35.0553 3.62379C35.6102 3.77326 36.143 3.999 36.6386 4.29489C36.8579 4.42599 37.136 4.38897 37.3151 4.2047L38.6488 2.83663L40.2283 4.45215L38.8907 5.81633C38.7111 5.9992 38.6749 6.28311 38.8028 6.50718C39.0918 7.01433 39.3125 7.55905 39.4592 8.1266C39.5237 8.376 39.7439 8.54997 39.9959 8.5508H41.8853V10.831H39.9959C39.743 10.8313 39.5221 11.0055 39.4576 11.2558Z"/>
</mask>
<path d="M42.4426 11.9711C42.7504 11.9711 42.9999 11.7159 42.9999 11.4011V7.98075C42.9999 7.66594 42.7504 7.4107 42.4426 7.4107H40.4122C40.2933 7.0366 40.1458 6.67252 39.9714 6.3218L41.4093 4.85631C41.5141 4.74943 41.5731 4.60413 41.5731 4.45271C41.5731 4.30129 41.5141 4.15599 41.4093 4.04911L39.0428 1.62638C38.9384 1.51949 38.7966 1.45937 38.6488 1.45937C38.501 1.45965 38.3593 1.51977 38.2548 1.62694L36.8193 3.09772C36.4764 2.9193 36.1204 2.76871 35.7547 2.6468V0.570054C35.7547 0.255244 35.5051 0 35.1973 0H31.8534C31.5456 0 31.296 0.255244 31.296 0.570054V2.6468C30.9303 2.76871 30.5743 2.9193 30.2315 3.09772L28.7981 1.62694C28.6936 1.51977 28.5519 1.45965 28.4041 1.45937C28.2563 1.45937 28.1145 1.51949 28.01 1.62638L25.6409 4.04744C25.5361 4.15432 25.477 4.29962 25.477 4.45104C25.477 4.60246 25.5361 4.74776 25.6409 4.85464L27.0788 6.32013C26.9044 6.67141 26.7571 7.03604 26.6385 7.4107H24.6081C24.3003 7.4107 24.0508 7.66594 24.0508 7.98075V11.4011C24.0508 11.7159 24.3003 11.9711 24.6081 11.9711H26.6385C26.7574 12.3452 26.9049 12.7093 27.0793 13.06L25.6414 14.5255C25.5364 14.6324 25.4773 14.778 25.4773 14.9294C25.4773 15.0811 25.5364 15.2264 25.6414 15.3333L28.0079 17.7499C28.2256 17.9723 28.5783 17.9723 28.796 17.7499L30.2293 16.2841C30.573 16.4625 30.9298 16.6131 31.296 16.735V18.8118C31.296 19.1266 31.5456 19.3818 31.8534 19.3818H35.1973C35.5051 19.3818 35.7547 19.1266 35.7547 18.8118V16.735C36.1207 16.6131 36.4766 16.4625 36.8198 16.2841L38.2531 17.7499C38.4708 17.972 38.823 17.972 39.0407 17.7499L41.4093 15.3327C41.5144 15.2258 41.5734 15.0805 41.5734 14.9288C41.5734 14.7771 41.5144 14.6318 41.4093 14.525L39.9714 13.0595C40.1458 12.709 40.2933 12.3449 40.4122 11.9711H42.4426ZM39.4576 11.2558C39.3109 11.8233 39.0902 12.368 38.8009 12.8752C38.6733 13.0993 38.7095 13.3832 38.8891 13.566L40.2266 14.9297L38.6477 16.5413L37.3151 15.1766C37.1363 14.9934 36.859 14.9567 36.6402 15.0869C36.1446 15.3828 35.6118 15.6086 35.0569 15.758C34.8115 15.8234 34.6403 16.05 34.64 16.3092V18.2417H32.4107V16.3092C32.4107 16.0503 32.2401 15.824 31.9954 15.758C31.4405 15.6086 30.9077 15.3828 30.4122 15.0869C30.1934 14.9567 29.9161 14.9934 29.7373 15.1766L28.4035 16.5407L26.8246 14.9297L28.1622 13.566C28.3418 13.3832 28.378 13.0993 28.2503 12.8752C27.9611 12.368 27.7404 11.8233 27.5937 11.2558C27.5292 11.0055 27.3079 10.831 27.0549 10.831H25.1654V8.5508H27.0549C27.3077 8.55052 27.5286 8.37628 27.5931 8.12605C27.7398 7.5585 27.9605 7.01377 28.2498 6.50663C28.3774 6.28256 28.3412 5.99864 28.1616 5.81577L26.8241 4.45159L28.4035 2.83607L29.7373 4.20414C29.9161 4.38785 30.1936 4.42487 30.4127 4.29433C30.9083 3.99845 31.4411 3.77271 31.996 3.62324C32.2403 3.55699 32.4104 3.33097 32.4107 3.07267V1.14011H34.64V3.07267C34.64 3.33153 34.8106 3.55782 35.0553 3.62379C35.6102 3.77326 36.143 3.999 36.6386 4.29489C36.8579 4.42599 37.136 4.38897 37.3151 4.2047L38.6488 2.83663L40.2283 4.45215L38.8907 5.81633C38.7111 5.9992 38.6749 6.28311 38.8028 6.50718C39.0918 7.01433 39.3125 7.55905 39.4592 8.1266C39.5237 8.376 39.7439 8.54997 39.9959 8.5508H41.8853V10.831H39.9959C39.743 10.8313 39.5221 11.0055 39.4576 11.2558Z" fill="#FF5F1A"/>
<path d="M42.4426 11.9711C42.7504 11.9711 42.9999 11.7159 42.9999 11.4011V7.98075C42.9999 7.66594 42.7504 7.4107 42.4426 7.4107H40.4122C40.2933 7.0366 40.1458 6.67252 39.9714 6.3218L41.4093 4.85631C41.5141 4.74943 41.5731 4.60413 41.5731 4.45271C41.5731 4.30129 41.5141 4.15599 41.4093 4.04911L39.0428 1.62638C38.9384 1.51949 38.7966 1.45937 38.6488 1.45937C38.501 1.45965 38.3593 1.51977 38.2548 1.62694L36.8193 3.09772C36.4764 2.9193 36.1204 2.76871 35.7547 2.6468V0.570054C35.7547 0.255244 35.5051 0 35.1973 0H31.8534C31.5456 0 31.296 0.255244 31.296 0.570054V2.6468C30.9303 2.76871 30.5743 2.9193 30.2315 3.09772L28.7981 1.62694C28.6936 1.51977 28.5519 1.45965 28.4041 1.45937C28.2563 1.45937 28.1145 1.51949 28.01 1.62638L25.6409 4.04744C25.5361 4.15432 25.477 4.29962 25.477 4.45104C25.477 4.60246 25.5361 4.74776 25.6409 4.85464L27.0788 6.32013C26.9044 6.67141 26.7571 7.03604 26.6385 7.4107H24.6081C24.3003 7.4107 24.0508 7.66594 24.0508 7.98075V11.4011C24.0508 11.7159 24.3003 11.9711 24.6081 11.9711H26.6385C26.7574 12.3452 26.9049 12.7093 27.0793 13.06L25.6414 14.5255C25.5364 14.6324 25.4773 14.778 25.4773 14.9294C25.4773 15.0811 25.5364 15.2264 25.6414 15.3333L28.0079 17.7499C28.2256 17.9723 28.5783 17.9723 28.796 17.7499L30.2293 16.2841C30.573 16.4625 30.9298 16.6131 31.296 16.735V18.8118C31.296 19.1266 31.5456 19.3818 31.8534 19.3818H35.1973C35.5051 19.3818 35.7547 19.1266 35.7547 18.8118V16.735C36.1207 16.6131 36.4766 16.4625 36.8198 16.2841L38.2531 17.7499C38.4708 17.972 38.823 17.972 39.0407 17.7499L41.4093 15.3327C41.5144 15.2258 41.5734 15.0805 41.5734 14.9288C41.5734 14.7771 41.5144 14.6318 41.4093 14.525L39.9714 13.0595C40.1458 12.709 40.2933 12.3449 40.4122 11.9711H42.4426ZM39.4576 11.2558C39.3109 11.8233 39.0902 12.368 38.8009 12.8752C38.6733 13.0993 38.7095 13.3832 38.8891 13.566L40.2266 14.9297L38.6477 16.5413L37.3151 15.1766C37.1363 14.9934 36.859 14.9567 36.6402 15.0869C36.1446 15.3828 35.6118 15.6086 35.0569 15.758C34.8115 15.8234 34.6403 16.05 34.64 16.3092V18.2417H32.4107V16.3092C32.4107 16.0503 32.2401 15.824 31.9954 15.758C31.4405 15.6086 30.9077 15.3828 30.4122 15.0869C30.1934 14.9567 29.9161 14.9934 29.7373 15.1766L28.4035 16.5407L26.8246 14.9297L28.1622 13.566C28.3418 13.3832 28.378 13.0993 28.2503 12.8752C27.9611 12.368 27.7404 11.8233 27.5937 11.2558C27.5292 11.0055 27.3079 10.831 27.0549 10.831H25.1654V8.5508H27.0549C27.3077 8.55052 27.5286 8.37628 27.5931 8.12605C27.7398 7.5585 27.9605 7.01377 28.2498 6.50663C28.3774 6.28256 28.3412 5.99864 28.1616 5.81577L26.8241 4.45159L28.4035 2.83607L29.7373 4.20414C29.9161 4.38785 30.1936 4.42487 30.4127 4.29433C30.9083 3.99845 31.4411 3.77271 31.996 3.62324C32.2403 3.55699 32.4104 3.33097 32.4107 3.07267V1.14011H34.64V3.07267C34.64 3.33153 34.8106 3.55782 35.0553 3.62379C35.6102 3.77326 36.143 3.999 36.6386 4.29489C36.8579 4.42599 37.136 4.38897 37.3151 4.2047L38.6488 2.83663L40.2283 4.45215L38.8907 5.81633C38.7111 5.9992 38.6749 6.28311 38.8028 6.50718C39.0918 7.01433 39.3125 7.55905 39.4592 8.1266C39.5237 8.376 39.7439 8.54997 39.9959 8.5508H41.8853V10.831H39.9959C39.743 10.8313 39.5221 11.0055 39.4576 11.2558Z" stroke="#FF5F1A" stroke-width="0.6" mask="url(#path-5-outside-1)"/>
<path d="M33.5253 7.30459C32.2318 7.30459 31.1889 8.3763 31.1889 9.69095C31.1889 11.0056 32.2318 12.0773 33.5253 12.0773C34.8188 12.0773 35.8617 11.0056 35.8617 9.69095C35.8617 8.3763 34.8188 7.30459 33.5253 7.30459ZM33.5253 10.6591C33.0076 10.6591 32.5821 10.2288 32.5821 9.69095C32.5821 9.15307 33.0076 8.72277 33.5253 8.72277C34.043 8.72277 34.4685 9.15307 34.4685 9.69095C34.4685 10.2288 34.043 10.6591 33.5253 10.6591Z" fill="#FF5F1A" stroke="#FF5F1A" stroke-width="0.3"/>
</g>
<defs>
<clipPath id="clip0">
<rect width="43" height="41" fill="white"/>
</clipPath>
</defs>
</svg>
