<svg width="67" height="49" viewBox="0 0 67 49" fill="none" xmlns="http://www.w3.org/2000/svg">
<g clip-path="url(#clip0)">
<path d="M60.2595 22.3375L58.2896 21.2036C58.3321 20.4158 58.3028 19.6299 58.1994 18.8521L60.0788 17.5775C60.8772 17.0337 61.1683 15.9965 60.76 15.1202L59.5854 12.5667C59.3647 12.0869 58.9735 11.7218 58.4793 11.539C58.0915 11.3955 57.6785 11.3779 57.2824 11.4874L55.0854 12.0828C54.5417 11.4764 53.9436 10.921 53.2927 10.4314L53.7105 8.22507C53.8912 7.27505 53.3624 6.33995 52.4554 6.00449L49.822 5.03051C48.915 4.69506 47.905 5.06104 47.424 5.90001L46.2746 7.8926C45.4931 7.85242 44.7048 7.88799 43.9247 7.99768L42.6626 6.12294C42.4332 5.78207 42.1018 5.52442 41.714 5.38098C41.2198 5.19821 40.679 5.21861 40.2054 5.44166L37.6456 6.61398C36.7716 7.01604 36.3116 7.99074 36.564 8.92319L37.165 11.1436C36.578 11.6732 36.0506 12.2532 35.5765 12.8814L33.3702 12.4636C32.4202 12.2829 31.4851 12.8117 31.1497 13.7187L30.1757 16.3521C29.8402 17.2591 30.2062 18.2691 31.0452 18.7501L33.0378 19.8995C32.9976 20.681 33.0332 21.4693 33.1428 22.2493L31.2767 23.5075C30.4782 24.0513 30.1871 25.0885 30.5954 25.9648L31.77 28.5183C31.9908 28.9981 32.3819 29.3632 32.8761 29.546C33.2639 29.6894 33.6769 29.7071 34.073 29.5976L36.2934 28.9966C36.8026 29.5618 37.3661 30.076 37.9693 30.5408L37.5422 32.7722C37.3615 33.7222 37.8903 34.6573 38.7973 34.9927L41.437 35.969C42.344 36.3045 43.354 35.9385 43.835 35.0995L44.9689 33.1296C45.7567 33.1721 46.5426 33.1428 47.3204 33.0394L48.595 34.9188C48.8245 35.2596 49.1559 35.5173 49.5437 35.6607C50.0378 35.8435 50.5724 35.8208 51.0523 35.6L53.6058 34.4254C54.4798 34.0234 54.9398 33.0487 54.6874 32.1162L54.092 29.9192C54.6789 29.3896 55.2189 28.8142 55.6906 28.1923L57.922 28.6193C58.872 28.8 59.8071 28.2713 60.1425 27.3643L61.1165 24.7308C61.4645 23.8284 61.0985 22.8184 60.2595 22.3375ZM58.4661 26.7442C58.4361 26.8256 58.3543 26.8735 58.2684 26.856L55.4792 26.3222C55.1269 26.2559 54.7739 26.4026 54.5746 26.6916C53.9969 27.5232 53.3078 28.271 52.5169 28.91C52.2416 29.1352 52.1222 29.4964 52.2143 29.8434L52.9543 32.5916C52.9749 32.6704 52.934 32.7619 52.8568 32.7974L50.3034 33.972C50.2434 33.9996 50.1973 33.9896 50.166 33.9781C50.1285 33.9642 50.1018 33.9401 50.0837 33.9121L48.4846 31.5643C48.2874 31.2709 47.9292 31.1242 47.579 31.1867C46.5791 31.3715 45.5629 31.4081 44.5555 31.3057C44.2002 31.2667 43.8567 31.4455 43.6864 31.7522L42.2706 34.2152C42.228 34.2919 42.1384 34.3227 42.0571 34.2926L39.4236 33.3187C39.3423 33.2886 39.2943 33.2068 39.3119 33.1209L39.8457 30.3318C39.912 29.9794 39.7652 29.6265 39.4763 29.4272C38.6674 28.8649 37.936 28.1891 37.3003 27.4277C37.1967 27.3041 37.0604 27.211 36.9166 27.1578C36.7477 27.0954 36.554 27.0806 36.3708 27.1338L33.6054 27.8816C33.5672 27.8888 33.5313 27.8897 33.5001 27.8782C33.475 27.8689 33.4273 27.8441 33.3997 27.7842L32.2251 25.2307C32.1896 25.1536 32.2157 25.0637 32.285 25.0111L34.6219 23.4221C34.9176 23.2186 35.0643 22.8605 35.0018 22.5102C34.8147 21.5166 34.7656 20.4958 34.868 19.4884C34.8984 19.137 34.7259 18.7959 34.4214 18.6193L31.942 17.1903C31.8654 17.1477 31.8345 17.0581 31.8646 16.9768L32.8386 14.3433C32.8686 14.262 32.9504 14.214 33.0363 14.2316L35.8067 14.7584C36.159 14.8247 36.5182 14.6803 36.7199 14.3851C37.2914 13.5512 37.9765 12.7948 38.7612 12.1535C39.0365 11.9282 39.1496 11.5647 39.0552 11.224L38.3073 8.45866C38.2867 8.37991 38.3276 8.28839 38.4048 8.25292L40.9582 7.07829C41.0182 7.05069 41.0643 7.06063 41.0956 7.0722C41.1331 7.08608 41.1598 7.11016 41.1779 7.13818L42.7668 9.47512C42.9703 9.77082 43.3285 9.91752 43.6787 9.85505C44.6723 9.66789 45.6931 9.61878 46.7005 9.72117C47.0519 9.75158 47.3931 9.57909 47.5697 9.27464L48.9986 6.79526C49.0412 6.71857 49.1309 6.68772 49.2122 6.71779L51.8456 7.69177C51.9269 7.72185 51.9749 7.80359 51.9574 7.88954L51.4305 10.6599C51.3642 11.0123 51.5086 11.3715 51.8038 11.5731C52.6605 12.1601 53.4247 12.8623 54.0802 13.6665C54.3054 13.9418 54.6666 14.0612 55.0136 13.969L57.7453 13.2159C57.7836 13.2087 57.8195 13.2078 57.8507 13.2193C57.8758 13.2286 57.9235 13.2533 57.9511 13.3133L59.1257 15.8668C59.1612 15.9439 59.1351 16.0338 59.0658 16.0864L56.718 17.6855C56.4246 17.8828 56.2779 18.241 56.3404 18.5912C56.5252 19.5911 56.5618 20.6072 56.4594 21.6147C56.4205 21.97 56.5992 22.3134 56.906 22.4838L59.3689 23.8996C59.4456 23.9422 59.4764 24.0318 59.4464 24.1131L58.4724 26.7466L58.4661 26.7442Z" fill="#FF5F1A"/>
<path d="M48.052 14.0456C44.4865 12.7269 40.5192 14.5519 39.2005 18.1174C37.8818 21.6829 39.7068 25.6502 43.2723 26.9689C46.8378 28.2876 50.8051 26.4626 52.1238 22.8971C53.4425 19.3316 51.6174 15.3643 48.052 14.0456ZM43.8969 25.28C41.2635 24.306 39.9154 21.3755 40.8894 18.742C41.8634 16.1086 44.7939 14.7605 47.4273 15.7345C50.0608 16.7085 51.4088 19.639 50.4349 22.2724C49.4609 24.9059 46.5304 26.254 43.8969 25.28Z" fill="#FF5F1A"/>
</g>
<g clip-path="url(#clip1)">
<path d="M30.362 29.6418L28.116 29.2608C27.882 28.5054 27.5812 27.7768 27.2135 27.0815L28.5371 25.2299C29.0986 24.4411 29.0117 23.3648 28.3232 22.683L26.3311 20.6909C25.9568 20.3166 25.4621 20.1094 24.934 20.1094C24.5196 20.1094 24.1252 20.2364 23.7909 20.477L21.9326 21.8006C21.2106 21.4196 20.4553 21.1054 19.6732 20.8714L19.2988 18.6521C19.1384 17.6962 18.3162 17.001 17.3469 17.001H14.5326C13.5633 17.001 12.7411 17.6962 12.5807 18.6521L12.1929 20.9249C11.4443 21.1589 10.7156 21.4664 10.0204 21.8407L8.18211 20.5171C7.84787 20.2765 7.44679 20.1495 7.03233 20.1495C6.50424 20.1495 6.00289 20.3567 5.63523 20.7311L3.63649 22.7231C2.95465 23.4049 2.86106 24.4812 3.42258 25.27L4.75953 27.1484C4.39187 27.8503 4.09774 28.5789 3.87046 29.3343L1.65113 29.7086C0.695212 29.8691 0 30.6913 0 31.6606V34.4749C0 35.4441 0.695212 36.2664 1.65113 36.4268L3.92394 36.8145C4.1579 37.5632 4.4654 38.2918 4.83974 38.987L3.52285 40.8187C2.96133 41.6075 3.04824 42.6837 3.73676 43.3655L5.72881 45.3576C6.10316 45.7319 6.59783 45.9392 7.12592 45.9392C7.54037 45.9392 7.93477 45.8122 8.26901 45.5715L10.1474 44.2346C10.8226 44.5889 11.5312 44.8763 12.2598 45.1036L12.6341 47.3496C12.7946 48.3056 13.6168 49.0008 14.5861 49.0008H17.407C18.3763 49.0008 19.1985 48.3056 19.359 47.3496L19.74 45.1036C20.4954 44.8696 21.224 44.5688 21.9192 44.2011L23.7709 45.5247C24.1051 45.7654 24.5062 45.8924 24.9207 45.8924C25.4488 45.8924 25.9434 45.6851 26.3178 45.3108L28.3098 43.3188C28.9917 42.6369 29.0853 41.5607 28.5237 40.7719L27.2002 38.9135C27.5678 38.2116 27.8753 37.483 28.1026 36.7343L30.3487 36.36C31.3046 36.1995 31.9998 35.3773 31.9998 34.408V31.5937C32.0132 30.6245 31.318 29.8022 30.362 29.6418ZM30.2083 34.408C30.2083 34.4949 30.1481 34.5684 30.0612 34.5818L27.2536 35.0497C26.8993 35.1099 26.6186 35.3706 26.5317 35.7115C26.2777 36.6942 25.89 37.6367 25.3685 38.5124C25.1881 38.8199 25.2014 39.201 25.4087 39.4951L27.0598 41.8214C27.1066 41.8882 27.0999 41.9885 27.0397 42.0487L25.0477 44.0407C25.0009 44.0875 24.9541 44.0942 24.9207 44.0942C24.8806 44.0942 24.8471 44.0808 24.8204 44.0608L22.5008 42.4096C22.2134 42.2024 21.8256 42.189 21.5181 42.3695C20.6424 42.8909 19.6999 43.2786 18.7172 43.5327C18.3696 43.6196 18.1089 43.907 18.0555 44.2546L17.5808 47.0622C17.5675 47.1491 17.4939 47.2093 17.407 47.2093H14.5928C14.5059 47.2093 14.4323 47.1491 14.419 47.0622L13.951 44.2546C13.8909 43.9003 13.6302 43.6196 13.2892 43.5327C12.3333 43.2853 11.4108 42.9043 10.5485 42.4096C10.4081 42.3294 10.2477 42.2893 10.0939 42.2893C9.91345 42.2893 9.72628 42.3428 9.57253 42.4564L7.23288 44.1209C7.19945 44.141 7.16603 44.1543 7.13261 44.1543C7.10587 44.1543 7.05239 44.1477 7.0056 44.1009L5.01355 42.1088C4.95338 42.0487 4.9467 41.9551 4.99349 41.8815L6.63794 39.5753C6.84516 39.2812 6.85853 38.8935 6.67804 38.586C6.15664 37.717 5.75555 36.7744 5.50153 35.7917C5.40795 35.4508 5.12719 35.1901 4.77958 35.13L1.95194 34.6487C1.86504 34.6353 1.80488 34.5618 1.80488 34.4749V31.6606C1.80488 31.5737 1.86504 31.5002 1.95194 31.4868L4.73947 31.0189C5.09376 30.9587 5.38121 30.698 5.46811 30.3504C5.71544 29.3677 6.09647 28.4185 6.6112 27.5428C6.79168 27.2353 6.77163 26.8543 6.5644 26.5668L4.89991 24.2272C4.85311 24.1603 4.8598 24.0601 4.91996 23.9999L6.91201 22.0078C6.9588 21.961 7.0056 21.9544 7.03902 21.9544C7.07913 21.9544 7.11255 21.9677 7.13929 21.9878L9.44552 23.6322C9.73965 23.8395 10.1274 23.8528 10.4349 23.6723C11.3039 23.1509 12.2464 22.7498 13.2291 22.4958C13.57 22.4022 13.8307 22.1215 13.8909 21.7739L14.3722 18.9462C14.3855 18.8593 14.4591 18.7992 14.546 18.7992H17.3602C17.4471 18.7992 17.5207 18.8593 17.534 18.9462L18.002 21.7338C18.0621 22.0881 18.3228 22.3755 18.6704 22.4624C19.6798 22.7164 20.6424 23.1108 21.5382 23.6389C21.8457 23.8194 22.2267 23.806 22.5209 23.5988L24.8271 21.941C24.8605 21.9209 24.8939 21.9076 24.9274 21.9076C24.9541 21.9076 25.0076 21.9143 25.0544 21.961L27.0464 23.9531C27.1066 24.0133 27.1133 24.1068 27.0665 24.1804L25.4153 26.5C25.2081 26.7874 25.1947 27.1751 25.3752 27.4826C25.8966 28.3583 26.2844 29.3009 26.5384 30.2835C26.6253 30.6311 26.9127 30.8918 27.2603 30.9453L30.0679 31.4199C30.1548 31.4333 30.215 31.5068 30.215 31.5937V34.408H30.2083Z" fill="#FF5F1A"/>
<path d="M16.0035 26.0913C12.1932 26.0913 9.09814 29.1863 9.09814 32.9966C9.09814 36.8069 12.1932 39.902 16.0035 39.902C19.8138 39.902 22.9088 36.8069 22.9088 32.9966C22.9088 29.1863 19.8138 26.0913 16.0035 26.0913ZM16.0035 38.0971C13.1892 38.0971 10.903 35.8109 10.903 32.9966C10.903 30.1824 13.1892 27.8962 16.0035 27.8962C18.8177 27.8962 21.1039 30.1824 21.1039 32.9966C21.1039 35.8109 18.8177 38.0971 16.0035 38.0971Z" fill="#FF5F1A"/>
</g>
<defs>
<clipPath id="clip0">
<rect width="31.9263" height="31.9263" fill="white" transform="translate(36.2236) rotate(20.2969)"/>
</clipPath>
<clipPath id="clip1">
<rect width="32" height="32" fill="white" transform="translate(0 17)"/>
</clipPath>
</defs>
</svg>
