<svg width="46" height="46" viewBox="0 0 46 46" fill="none" xmlns="http://www.w3.org/2000/svg">
<g clip-path="url(#clip0)">
<mask id="path-1-inside-1" fill="white">
<path d="M45.1016 13.6296H27.4002L27.3034 13.399C27.4803 12.9294 27.5775 12.4216 27.5775 11.8913C27.5775 10.6335 27.0331 9.50063 26.1677 8.7159V5.00458C26.1677 4.22055 25.8627 3.48285 25.3075 2.92659C24.753 2.37173 24.015 2.06641 23.2295 2.06641C21.6102 2.06641 20.2924 3.38458 20.2924 5.00458V8.83031C19.4975 9.60872 19.003 10.6932 19.003 11.8913C19.003 12.4332 19.1051 12.9515 19.2894 13.4292L19.2048 13.6296H6.25958V5.70227C6.25958 5.20602 5.85739 4.80383 5.36115 4.80383C2.40508 4.80383 0 7.18925 0 10.1208V38.6686C0 41.5941 2.40508 43.9743 5.36115 43.9743H45.1016C45.5978 43.9743 46 43.5721 46 43.0759V14.528C46 14.0318 45.5978 13.6296 45.1016 13.6296ZM21.8492 9.86211C22.687 9.26549 23.8381 9.25285 24.6884 9.83157C25.3472 10.2801 25.7806 11.036 25.7806 11.8913C25.7806 12.3532 25.6539 12.7859 25.4339 13.1572C25.4061 13.2039 25.377 13.2498 25.3461 13.2948C25.0106 13.7847 24.5052 14.1493 23.9149 14.3024C23.0218 14.5333 22.0545 14.2388 21.4383 13.5545C21.0417 13.113 20.7999 12.53 20.7999 11.8913C20.7999 11.0806 21.1891 10.3594 21.7903 9.90422C21.8099 9.88983 21.8296 9.87614 21.8492 9.86211ZM30.4012 31.2474L27.7171 24.8421C28.4552 24.4915 29.1024 24.0778 29.6611 23.6493L32.4901 30.3823L30.4012 31.2474ZM17.3047 28.5145L15.2324 27.6382L16.8871 23.7247C17.4497 24.1466 18.0986 24.5509 18.8367 24.8913L18.0642 26.7183L17.3047 28.5145ZM16.6049 30.1696L15.6869 32.3402L15.2166 29.5825L16.6049 30.1696ZM20.5381 15.1755C21.1094 15.6549 21.8117 15.989 22.548 16.1147C22.5438 16.1248 22.5406 16.1396 22.5339 16.148L19.5386 23.2316C18.8651 22.9137 18.2235 22.5031 17.6157 22.0019L20.5114 15.1545C20.5202 15.1615 20.5296 15.1682 20.5381 15.1755ZM24.2785 16.6358L24.3329 16.5067L24.5512 15.9904C25.1198 15.8164 25.6416 15.5268 26.087 15.1429L28.9339 21.9187C28.9244 21.9264 28.9153 21.9345 28.9058 21.9426C28.3096 22.4434 27.6799 22.8547 27.0198 23.1776L24.2785 16.6358ZM23.3001 18.9507L25.3289 23.7928C24.6526 23.9602 23.9507 24.0476 23.2243 24.05C22.5406 24.0476 21.8791 23.9707 21.2396 23.8226L23.3001 18.9507ZM22.0893 7.77289V5.00458C22.0893 4.37532 22.601 3.86328 23.2295 3.86328C23.5349 3.86328 23.8216 3.9819 24.036 4.19598C24.2518 4.41252 24.3708 4.6996 24.3708 5.00458V7.7406C23.6275 7.54793 22.8266 7.55881 22.0893 7.77289ZM1.79688 10.1208C1.79688 8.48637 2.9308 7.10818 4.46271 6.71407V33.4159C3.47688 33.5819 2.54475 34.0297 1.79688 34.6923V10.1208ZM44.2031 42.1774H5.36115C3.39581 42.1774 1.79688 40.6034 1.79688 38.6686C1.79688 36.7219 3.39581 35.138 5.36115 35.138C5.85739 35.138 6.25958 34.7358 6.25958 34.2396V15.4265H18.445L16.2452 20.629C15.8378 20.132 15.6325 19.7811 15.6297 19.7762C15.384 19.3452 14.8354 19.195 14.4045 19.4406C13.9732 19.686 13.823 20.2348 14.0686 20.6658C14.1149 20.7472 14.5726 21.5313 15.4682 22.4662L13.5773 26.9384L13.3425 26.8391C12.8856 26.646 12.3584 26.8598 12.1651 27.3167C11.972 27.7737 12.1858 28.3008 12.6427 28.4942L13.2516 28.7518L14.4276 35.6806C14.4947 36.0744 14.813 36.3765 15.2096 36.4229C15.2447 36.4267 15.2794 36.4288 15.3138 36.4288C15.6405 36.4288 15.9409 36.2491 16.0989 35.9624C16.1105 35.9417 16.1213 35.9207 16.1315 35.8985C16.1347 35.8922 16.1385 35.8866 16.141 35.8803L18.26 30.869L18.8549 31.1207C18.9693 31.1691 19.0876 31.1919 19.2045 31.1919C19.5547 31.1919 19.8874 30.9859 20.0323 30.643C20.2257 30.1861 20.0116 29.659 19.5547 29.4656L18.9598 29.214L20.5303 25.5005C21.3298 25.7108 22.2068 25.8385 23.1632 25.8466C23.172 25.8469 23.1811 25.8469 23.1902 25.8469H23.2583C23.2674 25.8469 23.2762 25.8469 23.2853 25.8466C24.2873 25.8382 25.2015 25.6978 26.0315 25.4693L29.0894 32.7673C29.2782 33.2169 29.8123 33.4363 30.2619 33.2503L31.3218 32.8109L31.9135 34.38H24.7758C24.2796 34.38 23.8774 34.7825 23.8774 35.2784C23.8774 35.7747 24.2796 36.1768 24.7758 36.1768H33.2057C33.2078 36.1768 33.2103 36.1772 33.2124 36.1772C33.2145 36.1772 33.2166 36.1768 33.2183 36.1768H35.7038C36.2 36.1768 36.6022 35.7747 36.6022 35.2784C36.6022 34.7825 36.2 34.38 35.7038 34.38H33.8339L32.9828 32.1234L34.0125 31.6969C34.2333 31.6053 34.4088 31.4295 34.4996 31.2084C34.5905 30.9873 34.5895 30.7392 34.4972 30.5188L31.0737 22.3679C31.9079 21.4769 32.3353 20.7441 32.3799 20.6658C32.6252 20.2355 32.4754 19.6891 32.0458 19.4427C31.6166 19.1964 31.068 19.3452 30.8203 19.774C30.8168 19.7797 30.6416 20.079 30.2952 20.5149L28.1579 15.4265H44.2031V42.1774Z"/>
</mask>
<path d="M45.1016 13.6296H27.4002L27.3034 13.399C27.4803 12.9294 27.5775 12.4216 27.5775 11.8913C27.5775 10.6335 27.0331 9.50063 26.1677 8.7159V5.00458C26.1677 4.22055 25.8627 3.48285 25.3075 2.92659C24.753 2.37173 24.015 2.06641 23.2295 2.06641C21.6102 2.06641 20.2924 3.38458 20.2924 5.00458V8.83031C19.4975 9.60872 19.003 10.6932 19.003 11.8913C19.003 12.4332 19.1051 12.9515 19.2894 13.4292L19.2048 13.6296H6.25958V5.70227C6.25958 5.20602 5.85739 4.80383 5.36115 4.80383C2.40508 4.80383 0 7.18925 0 10.1208V38.6686C0 41.5941 2.40508 43.9743 5.36115 43.9743H45.1016C45.5978 43.9743 46 43.5721 46 43.0759V14.528C46 14.0318 45.5978 13.6296 45.1016 13.6296ZM21.8492 9.86211C22.687 9.26549 23.8381 9.25285 24.6884 9.83157C25.3472 10.2801 25.7806 11.036 25.7806 11.8913C25.7806 12.3532 25.6539 12.7859 25.4339 13.1572C25.4061 13.2039 25.377 13.2498 25.3461 13.2948C25.0106 13.7847 24.5052 14.1493 23.9149 14.3024C23.0218 14.5333 22.0545 14.2388 21.4383 13.5545C21.0417 13.113 20.7999 12.53 20.7999 11.8913C20.7999 11.0806 21.1891 10.3594 21.7903 9.90422C21.8099 9.88983 21.8296 9.87614 21.8492 9.86211ZM30.4012 31.2474L27.7171 24.8421C28.4552 24.4915 29.1024 24.0778 29.6611 23.6493L32.4901 30.3823L30.4012 31.2474ZM17.3047 28.5145L15.2324 27.6382L16.8871 23.7247C17.4497 24.1466 18.0986 24.5509 18.8367 24.8913L18.0642 26.7183L17.3047 28.5145ZM16.6049 30.1696L15.6869 32.3402L15.2166 29.5825L16.6049 30.1696ZM20.5381 15.1755C21.1094 15.6549 21.8117 15.989 22.548 16.1147C22.5438 16.1248 22.5406 16.1396 22.5339 16.148L19.5386 23.2316C18.8651 22.9137 18.2235 22.5031 17.6157 22.0019L20.5114 15.1545C20.5202 15.1615 20.5296 15.1682 20.5381 15.1755ZM24.2785 16.6358L24.3329 16.5067L24.5512 15.9904C25.1198 15.8164 25.6416 15.5268 26.087 15.1429L28.9339 21.9187C28.9244 21.9264 28.9153 21.9345 28.9058 21.9426C28.3096 22.4434 27.6799 22.8547 27.0198 23.1776L24.2785 16.6358ZM23.3001 18.9507L25.3289 23.7928C24.6526 23.9602 23.9507 24.0476 23.2243 24.05C22.5406 24.0476 21.8791 23.9707 21.2396 23.8226L23.3001 18.9507ZM22.0893 7.77289V5.00458C22.0893 4.37532 22.601 3.86328 23.2295 3.86328C23.5349 3.86328 23.8216 3.9819 24.036 4.19598C24.2518 4.41252 24.3708 4.6996 24.3708 5.00458V7.7406C23.6275 7.54793 22.8266 7.55881 22.0893 7.77289ZM1.79688 10.1208C1.79688 8.48637 2.9308 7.10818 4.46271 6.71407V33.4159C3.47688 33.5819 2.54475 34.0297 1.79688 34.6923V10.1208ZM44.2031 42.1774H5.36115C3.39581 42.1774 1.79688 40.6034 1.79688 38.6686C1.79688 36.7219 3.39581 35.138 5.36115 35.138C5.85739 35.138 6.25958 34.7358 6.25958 34.2396V15.4265H18.445L16.2452 20.629C15.8378 20.132 15.6325 19.7811 15.6297 19.7762C15.384 19.3452 14.8354 19.195 14.4045 19.4406C13.9732 19.686 13.823 20.2348 14.0686 20.6658C14.1149 20.7472 14.5726 21.5313 15.4682 22.4662L13.5773 26.9384L13.3425 26.8391C12.8856 26.646 12.3584 26.8598 12.1651 27.3167C11.972 27.7737 12.1858 28.3008 12.6427 28.4942L13.2516 28.7518L14.4276 35.6806C14.4947 36.0744 14.813 36.3765 15.2096 36.4229C15.2447 36.4267 15.2794 36.4288 15.3138 36.4288C15.6405 36.4288 15.9409 36.2491 16.0989 35.9624C16.1105 35.9417 16.1213 35.9207 16.1315 35.8985C16.1347 35.8922 16.1385 35.8866 16.141 35.8803L18.26 30.869L18.8549 31.1207C18.9693 31.1691 19.0876 31.1919 19.2045 31.1919C19.5547 31.1919 19.8874 30.9859 20.0323 30.643C20.2257 30.1861 20.0116 29.659 19.5547 29.4656L18.9598 29.214L20.5303 25.5005C21.3298 25.7108 22.2068 25.8385 23.1632 25.8466C23.172 25.8469 23.1811 25.8469 23.1902 25.8469H23.2583C23.2674 25.8469 23.2762 25.8469 23.2853 25.8466C24.2873 25.8382 25.2015 25.6978 26.0315 25.4693L29.0894 32.7673C29.2782 33.2169 29.8123 33.4363 30.2619 33.2503L31.3218 32.8109L31.9135 34.38H24.7758C24.2796 34.38 23.8774 34.7825 23.8774 35.2784C23.8774 35.7747 24.2796 36.1768 24.7758 36.1768H33.2057C33.2078 36.1768 33.2103 36.1772 33.2124 36.1772C33.2145 36.1772 33.2166 36.1768 33.2183 36.1768H35.7038C36.2 36.1768 36.6022 35.7747 36.6022 35.2784C36.6022 34.7825 36.2 34.38 35.7038 34.38H33.8339L32.9828 32.1234L34.0125 31.6969C34.2333 31.6053 34.4088 31.4295 34.4996 31.2084C34.5905 30.9873 34.5895 30.7392 34.4972 30.5188L31.0737 22.3679C31.9079 21.4769 32.3353 20.7441 32.3799 20.6658C32.6252 20.2355 32.4754 19.6891 32.0458 19.4427C31.6166 19.1964 31.068 19.3452 30.8203 19.774C30.8168 19.7797 30.6416 20.079 30.2952 20.5149L28.1579 15.4265H44.2031V42.1774Z" fill="#FF5F1A" stroke="white" stroke-width="0.4" mask="url(#path-1-inside-1)"/>
<path d="M40.7402 35.5224L40.7402 35.5224C40.8424 35.2073 40.7309 34.8463 40.467 34.6456L40.7402 35.5224ZM40.7402 35.5224C40.6389 35.8356 40.3484 36.0585 40.0194 36.0759M40.7402 35.5224L40.0194 36.0759M40.0194 36.0759C39.6877 36.0933 39.3719 35.891 39.2439 35.5845M40.0194 36.0759L39.2439 35.5845M39.2439 35.5845C39.1017 35.2362 39.2234 34.823 39.5372 34.6154L39.2439 35.5845ZM39.5373 34.6153C39.8199 34.4285 40.1974 34.4405 40.467 34.6456L39.5373 34.6153Z" fill="#FF5F1A" stroke="white" stroke-width="0.2"/>
</g>
<defs>
<clipPath id="clip0">
<rect width="46" height="46" fill="white"/>
</clipPath>
</defs>
</svg>
