<svg width="32" height="32" viewBox="0 0 32 32" fill="none" xmlns="http://www.w3.org/2000/svg">
<path d="M18.83 16.0006L31.4136 3.41704C32.1954 2.6359 32.1954 1.36847 31.4136 0.587331C30.6318 -0.194475 29.3657 -0.194475 28.5839 0.587331L16.0003 13.1709L3.41606 0.587331C2.63426 -0.194475 1.36816 -0.194475 0.586354 0.587331C-0.195451 1.36847 -0.195451 2.6359 0.586354 3.41704L13.1706 16.0006L0.586354 28.5842C-0.195451 29.3654 -0.195451 30.6328 0.586354 31.414C0.977257 31.8042 1.48957 31.9996 2.00121 31.9996C2.51285 31.9996 3.02516 31.8042 3.41606 31.4133L16.0003 18.8297L28.5839 31.4133C28.9748 31.8042 29.4871 31.9996 29.9988 31.9996C30.5104 31.9996 31.0227 31.8042 31.4136 31.4133C32.1954 30.6321 32.1954 29.3647 31.4136 28.5836L18.83 16.0006Z" fill="#DDE4EB"/>
</svg>
