<svg width="288" height="288" viewBox="0 0 288 288" fill="none" xmlns="http://www.w3.org/2000/svg">
<circle cx="144" cy="144" r="143.5" fill="white" stroke="#DDE4EB"/>
<path opacity="0.2" d="M228.156 144.002C228.156 97.5199 190.478 59.8442 144.002 59.8442C97.523 59.8442 59.8447 97.5196 59.8447 144.002C59.8447 190.478 97.523 228.156 144.002 228.156C190.478 228.156 228.156 190.478 228.156 144.002Z" fill="#FF5F1A"/>
<path d="M211.326 144.002C211.326 106.816 181.183 76.6755 144.002 76.6755C106.819 76.6755 76.6768 106.816 76.6768 144.002C76.6768 181.182 106.819 211.325 144.002 211.325C181.183 211.325 211.326 181.182 211.326 144.002Z" fill="#FF5F1A"/>
<path d="M171.688 127.661C170.505 124.7 168.092 125.168 165.478 125.67C163.917 125.986 156.974 127.957 145.989 139.191C141.43 143.854 138.423 147.571 136.443 150.406C135.233 148.965 133.847 147.425 132.392 146.013C127.917 141.673 122.926 138.693 122.716 138.568C120.622 137.327 117.888 137.965 116.604 139.995C115.321 142.025 115.978 144.681 118.069 145.927C118.112 145.953 122.398 148.523 126.1 152.115C129.876 155.777 133.297 160.73 133.331 160.778C134.164 161.992 135.562 162.701 137.033 162.701C137.286 162.701 137.541 162.681 137.795 162.638C139.531 162.345 140.926 161.086 141.351 159.427C141.362 159.387 143.126 154.659 152.445 145.13C159.951 137.452 164.957 135.012 166.691 134.335C166.708 134.332 166.72 134.331 166.742 134.327C166.734 134.329 166.799 134.3 166.903 134.254C167.201 134.146 167.36 134.104 167.37 134.102C167.284 134.123 167.24 134.128 167.24 134.128L167.237 134.113C168.039 133.773 169.542 133.146 169.575 133.133C171.837 132.232 172.572 129.872 171.688 127.661Z" fill="white"/>
</svg>
